<svg width="69" height="64" viewBox="0 0 69 64" fill="none" xmlns="http://www.w3.org/2000/svg">
<path fillRule="evenodd" clipRule="evenodd" d="M4 59.1819V4.81824H25.6591C27.3189 4.81824 30.37 4.81843 30.37 4.81843L64.289 4.81824V15.9461H40.0759V26.4234H62.4736V37.5512H40.0759V48.054H64.3913V59.1819H30.37L23.553 40.6194H17.071V59.1819H4ZM16.071 39.6194H24.1524L31.37 58.1819H63.3913V49.054H39.0759V36.5512H61.4736V27.4234H39.0759V14.9461H63.289V5.81824H31.37C31.37 5.81824 27.3333 5.81824 25.6591 5.81824H5V58.1819H16.071V39.6194ZM31.37 17.6557C31.0273 17.2399 30.7445 16.9893 30.37 16.705C29.9168 16.3608 29.4033 16.0643 28.8295 15.8154C27.4318 15.1847 25.6676 14.8694 23.5369 14.8694H16.071V30.7216H23.5881C25.7017 30.7216 27.4574 30.4319 28.8551 29.8523C29.4182 29.6189 29.9231 29.3384 30.37 29.0109C30.744 28.7368 31.0774 28.4297 31.37 28.0897C31.6626 27.7497 32.6704 25.0467 32.6923 22.9891C32.7151 20.8434 32.6881 19.2554 31.37 17.6557ZM30.37 18.0379C29.7557 17.363 29.2231 17.0761 28.4316 16.7328L28.4249 16.7299L28.4183 16.7269C27.1898 16.1726 25.5775 15.8694 23.5369 15.8694H17.071V29.7216H23.5881C25.6188 29.7216 27.2337 29.442 28.4721 28.9286C29.2448 28.6082 29.8721 28.1969 30.37 27.6983C30.8679 27.1997 31.5466 24.8867 31.5688 22.9891C31.5921 20.9998 31.6978 19.4967 30.37 18.0379Z" fill="black"/>
</svg>
