<svg width="24" height="26" viewBox="0 0 24 26" fill="none" xmlns="http://www.w3.org/2000/svg">
<path d="M8.90418 23.5307C9.7293 24.2589 10.813 24.7007 11.9999 24.7007C13.187 24.7007 14.2707 24.2589 15.0959 23.5307M19.0204 8.31966C19.0204 6.45772 18.2808 4.67204 16.9642 3.35544C15.6477 2.03885 13.8619 1.29919 11.9999 1.29919C10.138 1.29919 8.35238 2.03885 7.03579 3.35544C5.7192 4.67204 4.97954 6.45772 4.97954 8.31966C4.97954 11.9354 4.06743 14.4111 3.04852 16.0485C2.18906 17.4298 1.75933 18.1203 1.77508 18.3131C1.79253 18.5264 1.83772 18.6077 2.00963 18.7352C2.16488 18.8504 2.86473 18.8504 4.26445 18.8504H19.7356C21.1353 18.8504 21.8352 18.8504 21.9904 18.7352C22.1623 18.6077 22.2075 18.5264 22.2249 18.3131C22.2407 18.1203 21.8109 17.4298 20.9515 16.0485C19.9326 14.4111 19.0204 11.9354 19.0204 8.31966Z" stroke="black" strokeWidth="1.6" strokeLinecap="round" strokeLinejoin="round"/>
</svg>
